<svg width="30" height="30" viewBox="0 0 30 30" fill="none" xmlns="http://www.w3.org/2000/svg">
<g clip-path="url(#clip0_34_2)">
<path d="M15 0C6.71575 0 0 6.71575 0 15C0 23.2842 6.71575 30 15 30C23.2842 30 30 23.2842 30 15C30 6.71575 23.2842 0 15 0ZM20.2805 15.6635L12.9757 20.6363C12.7299 20.8036 12.4116 20.8213 12.1488 20.6823C11.8859 20.5432 11.7214 20.2702 11.7214 19.9728V10.0272C11.7214 9.7298 11.8859 9.4568 12.1488 9.31771C12.4116 9.17869 12.7299 9.19634 12.9757 9.36373L20.2805 14.3365C20.5001 14.486 20.6315 14.7344 20.6315 15C20.6315 15.2656 20.5001 15.514 20.2805 15.6635Z" fill="#EA0808"/>
</g>
<defs>
<clipPath id="clip0_34_2">
<rect width="30" height="30" fill="white"/>
</clipPath>
</defs>
</svg>
